<?xml version="1.0" encoding="UTF-8"?>
<svg width="1600" height="900" viewBox="0 0 1600 900" xmlns="http://www.w3.org/2000/svg">
<defs>
<linearGradient id="bg" x1="0" y1="0" x2="1600" y2="900" gradientUnits="userSpaceOnUse">
<stop stop-color="#08131f"/><stop offset="1" stop-color="#11293c"/>
</linearGradient>
<linearGradient id="hero" x1="0" y1="0" x2="1" y2="1">
<stop stop-color="#113052"/><stop offset="1" stop-color="#0D6C73"/>
</linearGradient>
</defs>
<rect width="1600" height="900" fill="url(#bg)"/>
<circle cx="1270" cy="110" r="220" fill="#0d6c73" opacity="0.08"/>
<circle cx="140" cy="760" r="240" fill="#1f63a3" opacity="0.08"/>
<text x="56" y="64" fill="#ffffff" font-size="18" font-family="Arial">Nubra x Streamlit Concept</text>
<text x="56" y="112" fill="#e8f1f8" font-size="34" font-weight="700" font-family="Arial">OI Walls Summary</text>
<rect x="56" y="150" rx="26" width="470" height="690" fill="#10263a" stroke="#234a68"/>
<text x="78" y="184" fill="#e8f1f8" font-size="22" font-weight="700" font-family="Arial">Scanner Controls</text><rect x="80" y="200" rx="16" width="422" height="64" fill="#143149" stroke="#234a68"/>
<text x="100" y="238" fill="#e8f1f8" font-size="20" font-family="Arial">Symbols: NIFTY, BANKNIFTY, RELIANCE, HDFCBANK</text>
<rect x="80" y="286" rx="16" width="202" height="56" fill="#143149" stroke="#234a68"/>
<text x="100" y="320" fill="#e8f1f8" font-size="18" font-family="Arial">Exchange: NSE</text>
<rect x="300" y="286" rx="16" width="202" height="56" fill="#143149" stroke="#234a68"/>
<text x="320" y="320" fill="#e8f1f8" font-size="18" font-family="Arial">Normalize: Off</text>
<rect x="80" y="364" rx="16" width="170" height="48" fill="#2ed3b7"/>
<text x="110" y="394" fill="#082132" font-size="18" font-weight="700" font-family="Arial">Run Scan</text>
<rect x="556" y="150" rx="26" width="988" height="690" fill="#10263a" stroke="#234a68"/>
<text x="578" y="184" fill="#e8f1f8" font-size="22" font-weight="700" font-family="Arial">Result Grid</text><rect x="580" y="208" rx="18" width="940" height="548" fill="#143149" stroke="#234a68"/><text x="598" y="242" fill="#88a3bb" font-size="15" font-family="Arial">Stock</text><text x="732.2857142857142" y="242" fill="#88a3bb" font-size="15" font-family="Arial">LTP</text><text x="866.5714285714286" y="242" fill="#88a3bb" font-size="15" font-family="Arial">Wall Type</text><text x="1000.8571428571429" y="242" fill="#88a3bb" font-size="15" font-family="Arial">Wall Strike</text><text x="1135.142857142857" y="242" fill="#88a3bb" font-size="15" font-family="Arial">Strength</text><text x="1269.4285714285713" y="242" fill="#88a3bb" font-size="15" font-family="Arial">Proximity</text><text x="1403.7142857142858" y="242" fill="#88a3bb" font-size="15" font-family="Arial">Bias</text><line x1="596" y1="302" x2="1504" y2="302" stroke="#234a68"/><text x="598" y="320" fill="#e8f1f8" font-size="16" font-family="Arial">NIFTY</text><text x="732.2857142857142" y="320" fill="#e8f1f8" font-size="16" font-family="Arial">24,180.15</text><text x="866.5714285714286" y="320" fill="#24c48e" font-size="16" font-family="Arial">PUT</text><text x="1000.8571428571429" y="320" fill="#e8f1f8" font-size="16" font-family="Arial">24,100</text><text x="1135.142857142857" y="320" fill="#e8f1f8" font-size="16" font-family="Arial">7.2 L</text><text x="1269.4285714285713" y="320" fill="#e8f1f8" font-size="16" font-family="Arial">0.33%</text><text x="1403.7142857142858" y="320" fill="#e8f1f8" font-size="16" font-family="Arial">Bullish</text><line x1="596" y1="390" x2="1504" y2="390" stroke="#234a68"/><text x="598" y="408" fill="#e8f1f8" font-size="16" font-family="Arial">BANKNIFTY</text><text x="732.2857142857142" y="408" fill="#e8f1f8" font-size="16" font-family="Arial">53,460.45</text><text x="866.5714285714286" y="408" fill="#ff6b6b" font-size="16" font-family="Arial">CALL</text><text x="1000.8571428571429" y="408" fill="#e8f1f8" font-size="16" font-family="Arial">53,500</text><text x="1135.142857142857" y="408" fill="#e8f1f8" font-size="16" font-family="Arial">9.8 L</text><text x="1269.4285714285713" y="408" fill="#e8f1f8" font-size="16" font-family="Arial">0.07%</text><text x="1403.7142857142858" y="408" fill="#e8f1f8" font-size="16" font-family="Arial">Bearish</text><line x1="596" y1="478" x2="1504" y2="478" stroke="#234a68"/><text x="598" y="496" fill="#e8f1f8" font-size="16" font-family="Arial">RELIANCE</text><text x="732.2857142857142" y="496" fill="#e8f1f8" font-size="16" font-family="Arial">2,987.40</text><text x="866.5714285714286" y="496" fill="#24c48e" font-size="16" font-family="Arial">PUT</text><text x="1000.8571428571429" y="496" fill="#e8f1f8" font-size="16" font-family="Arial">2,950</text><text x="1135.142857142857" y="496" fill="#e8f1f8" font-size="16" font-family="Arial">4.1 L</text><text x="1269.4285714285713" y="496" fill="#e8f1f8" font-size="16" font-family="Arial">1.25%</text><text x="1403.7142857142858" y="496" fill="#e8f1f8" font-size="16" font-family="Arial">Bullish</text><line x1="596" y1="566" x2="1504" y2="566" stroke="#234a68"/><text x="598" y="584" fill="#e8f1f8" font-size="16" font-family="Arial">HDFCBANK</text><text x="732.2857142857142" y="584" fill="#e8f1f8" font-size="16" font-family="Arial">1,715.20</text><text x="866.5714285714286" y="584" fill="#ff6b6b" font-size="16" font-family="Arial">CALL</text><text x="1000.8571428571429" y="584" fill="#e8f1f8" font-size="16" font-family="Arial">1,720</text><text x="1135.142857142857" y="584" fill="#e8f1f8" font-size="16" font-family="Arial">3.7 L</text><text x="1269.4285714285713" y="584" fill="#e8f1f8" font-size="16" font-family="Arial">0.28%</text><text x="1403.7142857142858" y="584" fill="#e8f1f8" font-size="16" font-family="Arial">Bearish</text><line x1="596" y1="654" x2="1504" y2="654" stroke="#234a68"/><text x="598" y="672" fill="#e8f1f8" font-size="16" font-family="Arial">INFY</text><text x="732.2857142857142" y="672" fill="#e8f1f8" font-size="16" font-family="Arial">1,546.10</text><text x="866.5714285714286" y="672" fill="#24c48e" font-size="16" font-family="Arial">PUT</text><text x="1000.8571428571429" y="672" fill="#e8f1f8" font-size="16" font-family="Arial">1,540</text><text x="1135.142857142857" y="672" fill="#e8f1f8" font-size="16" font-family="Arial">2.8 L</text><text x="1269.4285714285713" y="672" fill="#e8f1f8" font-size="16" font-family="Arial">0.39%</text><text x="1403.7142857142858" y="672" fill="#e8f1f8" font-size="16" font-family="Arial">Bullish</text>
</svg>